<svg
    class="hero__footprint"
    xmlns="http://www.w3.org/2000/svg"
    viewBox="0 0 80.4 112.4"
  >
    <path
      d="M76.7 35.4c.9-2.5.4-4.6-.6-6-1.6.6-3.2 2.2-3.9 4.9-3-.2-6.1.9-6.1 6.3 0 11.6-6.9 8.4-9.8 16-3.4 8.8-4.1 6.8-6.9 6.5-4.6-.3-4.3-14.1-2.7-17.1 5.7-11.2-2.5-13.6-1.5-21.9.6-4.4 4.1-16.5-2.7-18.8 0-2.5-1-4.3-2.3-5.3-1.2 1-2.3 2.7-2.3 5.2C30.3 7 34 19.6 34.6 24.1c1 8.2-7.2 10.7-1.4 21.9 1.5 3 2.3 16.9-2.3 17.2-2.8.2-3.5 2.2-6.8-6.5-2.9-7.6-9.8-4.4-9.8-16 0-6-3.8-6.7-7.1-6.2-.7-2.4-2.2-3.7-3.7-4.3-.9 1.3-1.4 3.3-.6 5.7-5.4 2.9-1.5 11.4 1.4 14.3C7 52.9 9 54.3 9 59.3c0 10.6 7.6 12.8 13.3 17.5 5.2 4.3 6.1 8.2 7.3 15.9 4 26.2 17.5 26.5 21.5 0 1.2-7.8 1.8-10.9 6.9-15.2 5.6-4.7 13.7-7.6 13.7-18.2 0-5 2-6.4 4.7-9.1 2.9-3.2 7.1-12.4.3-14.8z"
      fill-rule="evenodd"
      clip-rule="evenodd"
    />
  </svg>